<?xml version="1.0" encoding="UTF-8" standalone="no"?>
<svg width="30px" height="30px" viewBox="0 0 30 30" version="1.1" xmlns="http://www.w3.org/2000/svg" xmlns:xlink="http://www.w3.org/1999/xlink" xmlns:sketch="http://www.bohemiancoding.com/sketch/ns">
    <!-- Generator: Sketch 3.4.4 (17249) - http://www.bohemiancoding.com/sketch -->
    <title>instagram</title>
    <desc>Created with Sketch.</desc>
    <defs></defs>
    <g id="Page-1" stroke="none" stroke-width="1" fill="none" fill-rule="evenodd" sketch:type="MSPage">
        <g id="instagram" sketch:type="MSArtboardGroup">
            <path d="M1.04251555,14.3016272 C0.924419825,5.07421875 0.173467594,1.0000005 15.0219461,1 C29.8704246,0.9999995 28.8704249,4.21354151 28.870425,14.3016272 C28.8704252,24.3897128 30.9753388,28.899946 15.5089272,28.8999461 C0.0425155494,28.8999462 1.16061128,23.5290356 1.04251555,14.3016272 Z" id="Path-276" fill="#FFFFFF" sketch:type="MSShapeGroup"></path>
            <path d="M19.6958238,10.8 L25.5,10.8 L25.5,7.65 C25.5,5.91030304 24.0895224,4.5 22.3560878,4.5 L7.64391218,4.5 C7.52769411,4.5 7.41294889,4.50633405 7.3,4.51867485 L7.3,8.7 L6.6,8.7 L6.6,4.67817917 C5.37679293,5.11026252 4.5,6.27974506 4.5,7.65 L4.5,10.8 L10.3041762,10.8 C11.4577493,9.51112632 13.1341503,8.7 15,8.7 C16.8658497,8.7 18.5422507,9.51112632 19.6958238,10.8 Z M20.6451363,12.2 L25.5,12.2 L25.5,19.4920296 C25.5,22.8085465 22.8120516,25.5 19.4962991,25.5 L10.5037009,25.5 C7.18099481,25.5 4.5,22.8101401 4.5,19.4920296 L4.5,12.2 L9.35486369,12.2 C8.93569424,13.0434713 8.7,13.9942109 8.7,15 C8.7,18.4793941 11.5206059,21.3 15,21.3 C18.4793941,21.3 21.3,18.4793941 21.3,15 C21.3,13.9942109 21.0643058,13.0434713 20.6451363,12.2 Z M20.7500234,0 L9.25000586,0 C5.99037312,0 3.923817,0.0126268545 1.97046312,1.96583425 C0.0123631847,3.92390489 0,6.00036328 0,9.25000586 L0,20.7500234 C0,24.0098027 0.0128026344,26.0765346 1.96583425,28.0295662 C3.92493027,29.9886329 6.00050976,30 9.25000586,30 L20.7500234,30 C24.0098027,30 26.0759193,29.9878126 28.0295662,28.0341657 C29.9872853,26.0764174 30,23.9994902 30,20.7499941 L30,9.25000586 C30,5.99034383 29.987461,3.92372911 28.0341657,1.97046312 C26.0752455,0.0114842853 23.9995195,0 20.7500234,0 Z M9.4,4.5 L9.4,8.7 L10.1,8.7 L10.1,4.5 L9.4,4.5 Z M8,4.5 L8,8.7 L8.7,8.7 L8.7,4.5 L8,4.5 Z M20.8935975,5.9 C20.3448488,5.9 19.9,6.35756388 19.9,6.89359751 L19.9,8.40640249 C19.9,8.95515124 20.3575639,9.4 20.8935975,9.4 L22.4064025,9.4 C22.9551512,9.4 23.4,8.94243612 23.4,8.40640249 L23.4,6.89359751 C23.4,6.34484876 22.9424361,5.9 22.4064025,5.9 L20.8935975,5.9 Z M15,19.9 C17.7061954,19.9 19.9,17.7061954 19.9,15 C19.9,12.2938046 17.7061954,10.1 15,10.1 C12.2938046,10.1 10.1,12.2938046 10.1,15 C10.1,17.7061954 12.2938046,19.9 15,19.9 Z" id="instagram_r-copy" fill="#D7C5B0" sketch:type="MSShapeGroup"></path>
        </g>
    </g>
</svg>