<?xml version="1.0" encoding="UTF-8" standalone="no"?>
<svg width="30px" height="30px" viewBox="0 0 30 30" version="1.1" xmlns="http://www.w3.org/2000/svg" xmlns:xlink="http://www.w3.org/1999/xlink" xmlns:sketch="http://www.bohemiancoding.com/sketch/ns">
    <!-- Generator: Sketch 3.4.4 (17249) - http://www.bohemiancoding.com/sketch -->
    <title>linkedin</title>
    <desc>Created with Sketch.</desc>
    <defs></defs>
    <g id="Page-1" stroke="none" stroke-width="1" fill="none" fill-rule="evenodd" sketch:type="MSPage">
        <g id="linkedin" sketch:type="MSArtboardGroup">
            <path d="M1.04251555,14.3016272 C0.924419825,5.07421875 0.173467594,1.0000005 15.0219461,1 C29.8704246,0.9999995 28.8704249,4.21354151 28.870425,14.3016272 C28.8704252,24.3897128 30.9753388,28.899946 15.5089272,28.8999461 C0.0425155494,28.8999462 1.16061128,23.5290356 1.04251555,14.3016272 Z" id="Path-276" fill="#FFFFFF" sketch:type="MSShapeGroup"></path>
            <path d="M20.7500234,0 L9.25000586,0 C5.99037312,0 3.923817,0.0126268545 1.97046312,1.96583425 C0.0123631847,3.92390489 0,6.00036328 0,9.25000586 L0,20.7500234 C0,24.0098027 0.0128026344,26.0765346 1.96583425,28.0295662 C3.92493027,29.9886329 6.00050976,30 9.25000586,30 L20.7500234,30 C24.0098027,30 26.0759193,29.9878126 28.0295662,28.0341657 C29.9872853,26.0764174 30,23.9994902 30,20.7499941 L30,9.25000586 C30,5.99034383 29.987461,3.92372911 28.0341657,1.97046312 C26.0752455,0.0114842853 23.9995195,0 20.7500234,0 Z M8.89252823,24 L8.89252823,9.72008547 L4.64656454,9.72008547 L4.64656454,24 L8.89252823,24 Z M6.76954638,3.5 C5.40078177,3.5 4.50689468,4.46367521 4.53482865,5.7485755 C4.50689468,6.97507123 5.40078177,7.96794872 6.74161241,7.96794872 C8.13831099,7.96794872 9.03219808,6.97507123 9.03219808,5.7485755 C9.00426411,4.46367521 8.13831099,3.5 6.76954638,3.5 Z M12.3004728,24 L16.5464365,24 L16.5464365,15.7649573 C16.5464365,15.3561254 16.6023044,14.9180912 16.7140403,14.6552707 C16.99338,13.8376068 17.6917293,12.9907407 18.8649561,12.9907407 C20.4013245,12.9907407 21.0158719,14.2464387 21.0158719,16.0861823 L21.0158719,24 L25.2618356,24 L25.2618356,15.531339 C25.2618356,11.3262108 23.1667877,9.3988604 20.3733906,9.3988604 C18.1107389,9.3988604 16.7140403,10.7713675 16.1553609,11.6766382 L16.0715589,11.6766382 L15.8760211,9.72008547 L12.1887369,9.72008547 C12.2446048,10.9757835 12.3004728,12.494302 12.3004728,14.275641 L12.3004728,24 Z" id="linkedin_r-copy" fill="#38A6D7" sketch:type="MSShapeGroup"></path>
        </g>
    </g>
</svg>