<?xml version="1.0" encoding="UTF-8" standalone="no"?>
<svg width="30px" height="30px" viewBox="0 0 30 30" version="1.1" xmlns="http://www.w3.org/2000/svg" xmlns:xlink="http://www.w3.org/1999/xlink" xmlns:sketch="http://www.bohemiancoding.com/sketch/ns">
    <!-- Generator: Sketch 3.4.4 (17249) - http://www.bohemiancoding.com/sketch -->
    <title>twitter</title>
    <desc>Created with Sketch.</desc>
    <defs></defs>
    <g id="Page-1" stroke="none" stroke-width="1" fill="none" fill-rule="evenodd" sketch:type="MSPage">
        <path d="M1.00000001,14.3016272 C0.881904285,5.07421875 0.130952054,1.0000005 14.9794306,1 C29.8279091,0.999999503 28.8279093,4.21354151 28.8279095,14.3016272 C28.8279096,24.3897128 30.9328233,28.899946 15.4664116,28.8999461 C8.91134444e-09,28.8999462 1.11809573,23.5290356 1.00000001,14.3016272 Z" id="Path-276" fill="#FFFFFF" sketch:type="MSShapeGroup"></path>
        <g id="twitter" sketch:type="MSArtboardGroup" fill="#5DD7FC">
            <path d="M20.7500234,0 L9.25000586,0 C5.99037312,0 3.923817,0.0126268545 1.97046312,1.96583425 C0.0123631847,3.92390489 0,6.00036328 0,9.25000586 L0,20.7500234 C0,24.0098027 0.0128026344,26.0765346 1.96583425,28.0295662 C3.92493027,29.9886329 6.00050976,30 9.25000586,30 L20.7500234,30 C24.0098027,30 26.0759193,29.9878126 28.0295662,28.0341657 C29.9872853,26.0764174 30,23.9994902 30,20.7499941 L30,9.25000586 C30,5.99034383 29.987461,3.92372911 28.0341657,1.97046312 C26.0752455,0.0114842853 23.9995195,0 20.7500234,0 Z M9.14925603,10.1309273 C12.8705457,12.0183343 16.0154644,11.9094455 16.0154644,11.9094455 C16.0154644,11.9094455 14.8232064,7.73537188 18.5083672,5.88426141 C22.1935278,4.03315064 24.7294478,7.15406347 24.7294478,7.15406347 C24.7294478,7.15406347 25.3721556,6.97681707 25.851036,6.79957066 C26.3299163,6.62232427 27.0230326,6.30581283 27.0230326,6.30581283 L25.8874657,8.34211959 L27.6360667,8.15590943 C27.6360667,8.15590943 27.4205469,8.47248392 26.7207277,9.11728502 C26.0209086,9.7620861 25.7324788,10.0951981 25.7324788,10.0951981 C25.7324788,10.0951981 25.9824729,15.1195255 23.3479631,18.9877891 C20.7134528,22.8560524 17.3095116,25.1776836 12.3647393,25.6663064 C7.419967,26.1549291 4.19957953,24.1418622 4.19957953,24.1418622 C4.19957953,24.1418622 6.36217281,24.0178704 7.74022403,23.488529 C9.11827533,22.9591877 11.1002234,21.5648256 11.1002234,21.5648256 C11.1002234,21.5648256 8.28215939,20.6937147 7.2705467,19.7137149 C6.25893398,18.733715 6.00603081,18.1529744 6.00603081,18.1529744 L8.78796577,18.1166781 C8.78796577,18.1166781 5.8615147,16.5559377 5.03054712,15.3218638 C4.19957944,14.08779 4.09119245,12.8900124 4.09119245,12.8900124 L6.22996924,13.7576886 C6.22996924,13.7576886 4.45248283,11.329272 4.19957953,9.44186492 C3.94667635,7.55445786 4.52474076,6.53816175 4.52474076,6.53816175 C4.52474076,6.53816175 5.42796641,8.24352022 9.14925603,10.1309273 Z" id="twitter_r-copy" sketch:type="MSShapeGroup"></path>
        </g>
    </g>
</svg>